<mxfile host="app.diagrams.net" modified="2021-10-20T17:55:39.931Z" agent="5.0 (Windows NT 10.0; Win64; x64) AppleWebKit/537.36 (KHTML, like Gecko) Chrome/94.0.4606.81 Safari/537.36" etag="0uK_6KF4a68yjKMOHHOM" version="15.5.2" type="github">
  <diagram id="_Y1VvN1hTZifHK8EvrtM" name="Page-1">
    <mxGraphModel dx="7" dy="4" grid="1" gridSize="10" guides="1" tooltips="1" connect="1" arrows="1" fold="1" page="1" pageScale="1" pageWidth="827" pageHeight="1169" math="0" shadow="0">
      <root>
        <mxCell id="0" />
        <mxCell id="1" parent="0" />
        <mxCell id="BYd_sPzDUwSqN-KOBVLo-1" value="" style="ellipse;whiteSpace=wrap;html=1;aspect=fixed;" vertex="1" parent="1">
          <mxGeometry x="390" y="30" width="40" height="40" as="geometry" />
        </mxCell>
        <mxCell id="BYd_sPzDUwSqN-KOBVLo-2" value="" style="ellipse;whiteSpace=wrap;html=1;aspect=fixed;" vertex="1" parent="1">
          <mxGeometry x="310" y="110" width="40" height="40" as="geometry" />
        </mxCell>
        <mxCell id="BYd_sPzDUwSqN-KOBVLo-3" value="" style="ellipse;whiteSpace=wrap;html=1;aspect=fixed;" vertex="1" parent="1">
          <mxGeometry x="470" y="110" width="40" height="40" as="geometry" />
        </mxCell>
        <mxCell id="BYd_sPzDUwSqN-KOBVLo-5" value="" style="endArrow=none;html=1;rounded=0;exitX=0.683;exitY=0.021;exitDx=0;exitDy=0;exitPerimeter=0;entryX=0.094;entryY=0.831;entryDx=0;entryDy=0;entryPerimeter=0;" edge="1" parent="1" source="BYd_sPzDUwSqN-KOBVLo-2" target="BYd_sPzDUwSqN-KOBVLo-1">
          <mxGeometry width="50" height="50" relative="1" as="geometry">
            <mxPoint x="360" y="110" as="sourcePoint" />
            <mxPoint x="410" y="60" as="targetPoint" />
          </mxGeometry>
        </mxCell>
        <mxCell id="BYd_sPzDUwSqN-KOBVLo-6" value="" style="endArrow=none;html=1;rounded=0;exitX=1;exitY=1;exitDx=0;exitDy=0;" edge="1" parent="1" source="BYd_sPzDUwSqN-KOBVLo-1" target="BYd_sPzDUwSqN-KOBVLo-3">
          <mxGeometry width="50" height="50" relative="1" as="geometry">
            <mxPoint x="430" y="80" as="sourcePoint" />
            <mxPoint x="480" y="30" as="targetPoint" />
          </mxGeometry>
        </mxCell>
      </root>
    </mxGraphModel>
  </diagram>
</mxfile>
